<?xml version="1.0" encoding="UTF-8"?>
<svg version="1.1" viewBox="0 0 1000 1000" xmlns="http://www.w3.org/2000/svg">
<rect width="1e3" height="1e3" fill="#f0f0f0"/>
<g transform="matrix(.7 0 0 .7 149.58 438.25)">
<svg width="1e3" height="176" data-background-color="#f0f0f0" viewBox="0 0 396 70" xmlns="http://www.w3.org/2000/svg" xmlns:xlink="http://www.w3.org/1999/xlink">
<g transform="translate(.24 .082893)">
<svg width="395.52" height="69.834" viewBox="0 0 395.5199999999999 69.83421517035562">
<svg width="395.52" height="69.834" viewBox="0 0 395.52000000000004 69.83421517035563">
<svg width="395.52" height="69.834" viewBox="0 0 395.52000000000004 69.83421517035563">
<svg width="395.52" height="69.834" viewBox="0 0 395.52000000000004 69.83421517035563">
<svg width="395.52" height="69.834" viewBox="0 0 395.52000000000004 69.83421517035563">
<g>
<svg width="395.52" height="69.834" data-palette-color="#1f302b" viewBox="3.030001163482666 -37.54999923706055 294.5 49">
<svg/>
<g class="undefined-text-0" data-fill-palette-color="primary">
<path d="m38.04-31.81v31.81h-6.35v-8.59h-22.31v8.59h-6.35v-17.5c0-2.56 0.44-4.913 1.32-7.06 0.873-2.147 2.093-3.993 3.66-5.54 1.56-1.547 3.407-2.753 5.54-3.62 2.133-0.86 4.46-1.29 6.98-1.29h14.31c0.44 0 0.853 0.08 1.24 0.24 0.393 0.167 0.737 0.397 1.03 0.69s0.52 0.633 0.68 1.02c0.167 0.393 0.25 0.81 0.25 1.25zm-28.66 14.31v2.56h22.31v-13.72h-11.16c-0.193 0-0.603 0.027-1.23 0.08-0.627 0.06-1.35 0.203-2.17 0.43-0.827 0.227-1.693 0.577-2.6 1.05-0.913 0.473-1.753 1.123-2.52 1.95-0.767 0.833-1.397 1.873-1.89 3.12-0.493 1.24-0.74 2.75-0.74 4.53zm46.92 11.15v6.35h-2.83c-0.913 0-1.887-0.153-2.92-0.46-1.033-0.313-1.997-0.823-2.89-1.53-0.9-0.707-1.643-1.627-2.23-2.76-0.58-1.133-0.87-2.52-0.87-4.16v-28.64h6.34v28.64c0 0.78 0.247 1.403 0.74 1.87 0.487 0.46 1.097 0.69 1.83 0.69zm32.79-11.15v20.04c0 1.087-0.14 2.067-0.42 2.94-0.273 0.873-0.64 1.64-1.1 2.3-0.453 0.653-0.98 1.213-1.58 1.68-0.607 0.467-1.24 0.847-1.9 1.14-0.653 0.293-1.32 0.507-2 0.64-0.673 0.14-1.31 0.21-1.91 0.21h-11.45v-6.35h11.45c0.86 0 1.5-0.22 1.92-0.66 0.427-0.44 0.64-1.073 0.64-1.9v-20.04c0-0.833-0.213-1.467-0.64-1.9-0.42-0.427-1.06-0.64-1.92-0.64h-11.45c-0.787 0-1.407 0.24-1.86 0.72s-0.68 1.087-0.68 1.82v8.59c0 0.827 0.22 1.46 0.66 1.9 0.433 0.44 1.073 0.66 1.92 0.66h11.41v6.35h-11.45c-0.607 0-1.243-0.07-1.91-0.21s-1.33-0.353-1.99-0.64c-0.66-0.293-1.29-0.673-1.89-1.14s-1.13-1.027-1.59-1.68c-0.453-0.66-0.82-1.427-1.1-2.3-0.273-0.873-0.41-1.853-0.41-2.94v-8.59c0-0.607 0.07-1.243 0.21-1.91 0.133-0.667 0.347-1.33 0.64-1.99s0.673-1.29 1.14-1.89c0.46-0.6 1.02-1.13 1.68-1.59 0.66-0.453 1.423-0.82 2.29-1.1 0.86-0.273 1.837-0.41 2.93-0.41h11.45c0.6 0 1.237 0.07 1.91 0.21 0.68 0.133 1.347 0.347 2 0.64 0.66 0.293 1.293 0.673 1.9 1.14 0.6 0.46 1.127 1.02 1.58 1.68 0.46 0.66 0.827 1.423 1.1 2.29 0.28 0.86 0.42 1.837 0.42 2.93zm34.52 0v8.59c0 1.087-0.14 2.067-0.42 2.94-0.273 0.873-0.64 1.64-1.1 2.3-0.453 0.653-0.98 1.213-1.58 1.68-0.607 0.467-1.237 0.847-1.89 1.14-0.66 0.287-1.33 0.5-2.01 0.64-0.673 0.14-1.31 0.21-1.91 0.21h-11.45c-0.88 0-1.84-0.153-2.88-0.46-1.047-0.313-2.013-0.823-2.9-1.53s-1.627-1.627-2.22-2.76-0.89-2.52-0.89-4.16v-8.59c0-1.633 0.297-3.013 0.89-4.14 0.593-1.133 1.333-2.053 2.22-2.76s1.853-1.217 2.9-1.53c1.04-0.307 2-0.46 2.88-0.46h11.45c1.627 0 3.01 0.293 4.15 0.88s2.06 1.323 2.76 2.21 1.207 1.85 1.52 2.89c0.32 1.04 0.48 2.01 0.48 2.91zm-6.35 8.59v-8.55c0-0.873-0.22-1.523-0.66-1.95-0.44-0.42-1.073-0.63-1.9-0.63h-11.4c-0.847 0-1.49 0.213-1.93 0.64-0.44 0.433-0.66 1.067-0.66 1.9v8.59c0 0.827 0.22 1.46 0.66 1.9s1.083 0.66 1.93 0.66h11.4c0.86 0 1.503-0.22 1.93-0.66 0.42-0.44 0.63-1.073 0.63-1.9zm49.2-11.94v6.69c0 1.627-0.217 3.16-0.65 4.6s-1.043 2.747-1.83 3.92c-0.793 1.173-1.747 2.2-2.86 3.08-1.113 0.873-2.353 1.563-3.72 2.07l7.42 5.89h-9.2l-6.11-4.91h-6.25c-2.1 0-4.043-0.363-5.83-1.09-1.793-0.72-3.34-1.733-4.64-3.04-1.307-1.3-2.33-2.847-3.07-4.64-0.74-1.787-1.11-3.747-1.11-5.88v-6.69c0-2.113 0.37-4.07 1.11-5.87s1.763-3.347 3.07-4.64c1.3-1.293 2.847-2.307 4.64-3.04 1.787-0.733 3.73-1.1 5.83-1.1h8.6c2.093 0 4.033 0.367 5.82 1.1 1.78 0.733 3.32 1.747 4.62 3.04 1.307 1.293 2.327 2.84 3.06 4.64s1.1 3.757 1.1 5.87zm-6.35 6.69v-6.69c0-1.253-0.2-2.39-0.6-3.41-0.4-1.013-0.963-1.883-1.69-2.61-0.72-0.72-1.59-1.28-2.61-1.68-1.013-0.4-2.13-0.6-3.35-0.6h-8.6c-1.233 0-2.36 0.2-3.38 0.6s-1.893 0.96-2.62 1.68c-0.733 0.727-1.3 1.597-1.7 2.61-0.4 1.02-0.6 2.157-0.6 3.41v6.69c0 1.253 0.2 2.39 0.6 3.41 0.4 1.013 0.967 1.883 1.7 2.61 0.727 0.72 1.6 1.28 2.62 1.68s2.147 0.6 3.38 0.6h8.55c1.233 0 2.36-0.2 3.38-0.6 1.013-0.4 1.887-0.96 2.62-1.68 0.733-0.727 1.3-1.597 1.7-2.61 0.4-1.02 0.6-2.157 0.6-3.41zm40.77-12.23v23.19c0 0.46-0.083 0.883-0.25 1.27-0.16 0.393-0.383 0.73-0.67 1.01-0.28 0.287-0.613 0.513-1 0.68-0.38 0.16-0.79 0.24-1.23 0.24h-14.36c-0.78 0-1.613-0.09-2.5-0.27s-1.76-0.47-2.62-0.87c-0.867-0.393-1.703-0.897-2.51-1.51-0.8-0.607-1.503-1.347-2.11-2.22-0.6-0.873-1.083-1.88-1.45-3.02-0.367-1.133-0.55-2.417-0.55-3.85v-14.65h6.35v14.65c0 0.827 0.143 1.57 0.43 2.23 0.28 0.66 0.667 1.227 1.16 1.7 0.487 0.473 1.06 0.833 1.72 1.08 0.66 0.253 1.37 0.38 2.13 0.38h11.11v-20.04zm33.2 8.74v8.91c0 0.88-0.153 1.827-0.46 2.84-0.313 1.02-0.813 1.967-1.5 2.84-0.693 0.867-1.597 1.593-2.71 2.18-1.12 0.587-2.477 0.88-4.07 0.88h-11.45c-0.88 0-1.827-0.153-2.84-0.46-1.02-0.313-1.963-0.817-2.83-1.51-0.873-0.687-1.603-1.59-2.19-2.71-0.587-1.113-0.88-2.467-0.88-4.06 0-0.88 0.157-1.833 0.47-2.86 0.307-1.02 0.807-1.967 1.5-2.84 0.687-0.873 1.59-1.603 2.71-2.19 1.113-0.58 2.467-0.87 4.06-0.87h11.45v6.05h-11.45c-0.86 0-1.527 0.263-2 0.79-0.473 0.533-0.71 1.19-0.71 1.97 0 0.827 0.273 1.473 0.82 1.94s1.193 0.7 1.94 0.7h11.4c0.867 0 1.533-0.263 2-0.79 0.473-0.52 0.71-1.17 0.71-1.95v-8.86c0-0.833-0.257-1.493-0.77-1.98s-1.16-0.73-1.94-0.73h-13.94v-6.03h13.94c0.88 0 1.83 0.153 2.85 0.46 1.013 0.313 1.957 0.813 2.83 1.5 0.867 0.693 1.593 1.597 2.18 2.71 0.587 1.12 0.88 2.477 0.88 4.07zm34.67 3v14.65h-6.35v-14.65c0-0.827-0.14-1.57-0.42-2.23-0.287-0.66-0.673-1.227-1.16-1.7-0.493-0.473-1.07-0.837-1.73-1.09-0.653-0.247-1.363-0.37-2.13-0.37h-11.11v20.04h-6.35v-23.24c0-0.44 0.083-0.853 0.25-1.24 0.16-0.38 0.387-0.713 0.68-1 0.293-0.28 0.637-0.503 1.03-0.67 0.387-0.16 0.8-0.24 1.24-0.24h14.31c0.793 0 1.633 0.09 2.52 0.27s1.767 0.467 2.64 0.86c0.873 0.4 1.703 0.907 2.49 1.52 0.787 0.607 1.487 1.347 2.1 2.22s1.097 1.877 1.45 3.01c0.36 1.14 0.54 2.427 0.54 3.86zm28.78-11.74v6.35h-11.08v20.04h-6.42v-20.04h-8.25v-6.35h8.25v-8.62h6.42v8.62z" fill="#1f302b" font-family="none" font-size="none" font-weight="none" stroke-dasharray="" stroke-miterlimit="10" text-anchor="none" style="mix-blend-mode:normal" data-fill-palette-color="primary" xmlns="http://www.w3.org/2000/svg"/>
</g>
</svg>
</g>
</svg>
</svg>
</svg>
</svg>
</svg>
<rect width="395.52" height="69.834" fill="none" visibility="hidden"/>
</g>
</svg>
</g>
</svg>
